{
    "asset" : {
        "generator" : "Khronos glTF Blender I/O v1.6.16",
        "version" : "2.0"
    },
    "scene" : 0,
    "scenes" : [
        {
            "name" : "Scene",
            "nodes" : [
                0,
                1,
                2,
                3
            ]
        }
    ],
    "nodes" : [
        {
            "name" : "Light",
            "rotation" : [
                0.16907575726509094,
                0.7558803558349609,
                -0.27217137813568115,
                0.570947527885437
            ],
            "translation" : [
                4.076245307922363,
                5.903861999511719,
                -1.0054539442062378
            ]
        },
        {
            "name" : "Camera",
            "rotation" : [
                0.483536034822464,
                0.33687159419059753,
                -0.20870360732078552,
                0.7804827094078064
            ],
            "translation" : [
                7.358891487121582,
                4.958309173583984,
                6.925790786743164
            ]
        },
        {
            "mesh" : 0,
            "name" : "text",
            "rotation" : [
                0.7058108448982239,
                0,
                0,
                0.7084003686904907
            ],
            "translation" : [
                -0.19483482837677002,
                0.4275023937225342,
                0.010688487440347672
            ]
        },
        {
            "mesh" : 1,
            "name" : "Cube",
            "translation" : [
                -0.18142011761665344,
                0.316708505153656,
                -0.08283835649490356
            ]
        }
    ],
    "materials" : [
        {
            "doubleSided" : true,
            "name" : "Material.001",
            "pbrMetallicRoughness" : {
                "baseColorFactor" : [
                    0.8166637420654297,
                    0.8793951272964478,
                    1,
                    1
                ],
                "metallicFactor" : 0,
                "roughnessFactor" : 0.9545454382896423
            }
        },
        {
            "doubleSided" : true,
            "name" : "Material.003",
            "pbrMetallicRoughness" : {
                "baseColorTexture" : {
                    "index" : 0
                },
                "metallicFactor" : 0,
                "roughnessFactor" : 0.781818151473999
            }
        }
    ],
    "meshes" : [
        {
            "name" : "Content",
            "primitives" : [
                {
                    "attributes" : {
                        "POSITION" : 0,
                        "NORMAL" : 1,
                        "TEXCOORD_0" : 2
                    },
                    "indices" : 3,
                    "material" : 0
                }
            ]
        },
        {
            "name" : "Cube.002",
            "primitives" : [
                {
                    "attributes" : {
                        "POSITION" : 4,
                        "NORMAL" : 5,
                        "TEXCOORD_0" : 6
                    },
                    "indices" : 7,
                    "material" : 1
                }
            ]
        }
    ],
    "textures" : [
        {
            "sampler" : 0,
            "source" : 0
        }
    ],
    "images" : [
        {
            "bufferView" : 8,
            "mimeType" : "image/jpeg",
            "name" : "WoodFineDark004_COL_1K"
        }
    ],
    "accessors" : [
        {
            "bufferView" : 0,
            "componentType" : 5126,
            "count" : 3556,
            "max" : [
                1.6779999732971191,
                0.09999999403953552,
                0.3500000238418579
            ],
            "min" : [
                -1.6780000925064087,
                -0.09999999403953552,
                -0.3500000238418579
            ],
            "type" : "VEC3"
        },
        {
            "bufferView" : 1,
            "componentType" : 5126,
            "count" : 3556,
            "type" : "VEC3"
        },
        {
            "bufferView" : 2,
            "componentType" : 5126,
            "count" : 3556,
            "type" : "VEC2"
        },
        {
            "bufferView" : 3,
            "componentType" : 5123,
            "count" : 6216,
            "type" : "SCALAR"
        },
        {
            "bufferView" : 4,
            "componentType" : 5126,
            "count" : 336,
            "max" : [
                1.8692201375961304,
                0.5835187435150146,
                0.10053637623786926
            ],
            "min" : [
                -1.86922025680542,
                -0.5835186839103699,
                -0.10053649544715881
            ],
            "type" : "VEC3"
        },
        {
            "bufferView" : 5,
            "componentType" : 5126,
            "count" : 336,
            "type" : "VEC3"
        },
        {
            "bufferView" : 6,
            "componentType" : 5126,
            "count" : 336,
            "type" : "VEC2"
        },
        {
            "bufferView" : 7,
            "componentType" : 5123,
            "count" : 660,
            "type" : "SCALAR"
        }
    ],
    "bufferViews" : [
        {
            "buffer" : 0,
            "byteLength" : 42672,
            "byteOffset" : 0
        },
        {
            "buffer" : 0,
            "byteLength" : 42672,
            "byteOffset" : 42672
        },
        {
            "buffer" : 0,
            "byteLength" : 28448,
            "byteOffset" : 85344
        },
        {
            "buffer" : 0,
            "byteLength" : 12432,
            "byteOffset" : 113792
        },
        {
            "buffer" : 0,
            "byteLength" : 4032,
            "byteOffset" : 126224
        },
        {
            "buffer" : 0,
            "byteLength" : 4032,
            "byteOffset" : 130256
        },
        {
            "buffer" : 0,
            "byteLength" : 2688,
            "byteOffset" : 134288
        },
        {
            "buffer" : 0,
            "byteLength" : 1320,
            "byteOffset" : 136976
        },
        {
            "buffer" : 0,
            "byteLength" : 255967,
            "byteOffset" : 138296
        }
    ],
    "samplers" : [
        {
            "magFilter" : 9729,
            "minFilter" : 9987
        }
    ],
    "buffers" : [
        {
            "byteLength" : 394264,
            "uri" : "data:application/octet-stream;base64,"
        }
    ]
}
