{
    "asset" : {
        "generator" : "Khronos glTF Blender I/O v1.6.16",
        "version" : "2.0"
    },
    "scene" : 0,
    "scenes" : [
        {
            "name" : "Scene",
            "nodes" : [
                0,
                1,
                3
            ]
        }
    ],
    "nodes" : [
        {
            "name" : "Light",
            "rotation" : [
                0.16907575726509094,
                0.7558803558349609,
                -0.27217137813568115,
                0.570947527885437
            ],
            "translation" : [
                4.076245307922363,
                5.903861999511719,
                -1.0054539442062378
            ]
        },
        {
            "name" : "Camera",
            "rotation" : [
                0.483536034822464,
                0.33687159419059753,
                -0.20870360732078552,
                0.7804827094078064
            ],
            "translation" : [
                7.358891487121582,
                4.958309173583984,
                6.925790786743164
            ]
        },
        {
            "mesh" : 0,
            "name" : "Cube",
            "rotation" : [
                -0.7058108448982239,
                0,
                0,
                0.7084003686904907
            ],
            "translation" : [
                -0.7889609336853027,
                -0.989489734172821,
                0.809869647026062
            ]
        },
        {
            "children" : [
                2
            ],
            "mesh" : 1,
            "name" : "text",
            "rotation" : [
                0.7058108448982239,
                0,
                0,
                0.7084003686904907
            ],
            "translation" : [
                -0.19483482837677002,
                0.45467957854270935,
                -0.018202025443315506
            ]
        }
    ],
    "materials" : [
        {
            "doubleSided" : true,
            "name" : "Material.002",
            "pbrMetallicRoughness" : {
                "baseColorFactor" : [
                    0.035217974334955215,
                    0.035217974334955215,
                    0.035217974334955215,
                    1
                ],
                "metallicFactor" : 0,
                "roughnessFactor" : 0.5
            }
        },
        {
            "doubleSided" : true,
            "name" : "Material.001",
            "pbrMetallicRoughness" : {
                "baseColorFactor" : [
                    0.8166637420654297,
                    0.8793951272964478,
                    1,
                    1
                ],
                "metallicFactor" : 0,
                "roughnessFactor" : 0
            }
        }
    ],
    "meshes" : [
        {
            "name" : "Cube.001",
            "primitives" : [
                {
                    "attributes" : {
                        "POSITION" : 0,
                        "NORMAL" : 1,
                        "TEXCOORD_0" : 2
                    },
                    "indices" : 3,
                    "material" : 0
                }
            ]
        },
        {
            "name" : "Content",
            "primitives" : [
                {
                    "attributes" : {
                        "POSITION" : 4,
                        "NORMAL" : 5,
                        "TEXCOORD_0" : 6
                    },
                    "indices" : 7,
                    "material" : 1
                }
            ]
        }
    ],
    "accessors" : [
        {
            "bufferView" : 0,
            "componentType" : 5126,
            "count" : 254,
            "max" : [
                2.643826723098755,
                1.2032372951507568,
                1
            ],
            "min" : [
                -1,
                0.3915529251098633,
                0.7758737802505493
            ],
            "type" : "VEC3"
        },
        {
            "bufferView" : 1,
            "componentType" : 5126,
            "count" : 254,
            "type" : "VEC3"
        },
        {
            "bufferView" : 2,
            "componentType" : 5126,
            "count" : 254,
            "type" : "VEC2"
        },
        {
            "bufferView" : 3,
            "componentType" : 5123,
            "count" : 492,
            "type" : "SCALAR"
        },
        {
            "bufferView" : 4,
            "componentType" : 5126,
            "count" : 3418,
            "max" : [
                1.6779999732971191,
                0.09999999403953552,
                0.3500000238418579
            ],
            "min" : [
                -1.6780000925064087,
                -0.09999999403953552,
                -0.3500000238418579
            ],
            "type" : "VEC3"
        },
        {
            "bufferView" : 5,
            "componentType" : 5126,
            "count" : 3418,
            "type" : "VEC3"
        },
        {
            "bufferView" : 6,
            "componentType" : 5126,
            "count" : 3418,
            "type" : "VEC2"
        },
        {
            "bufferView" : 7,
            "componentType" : 5123,
            "count" : 6216,
            "type" : "SCALAR"
        }
    ],
    "bufferViews" : [
        {
            "buffer" : 0,
            "byteLength" : 3048,
            "byteOffset" : 0
        },
        {
            "buffer" : 0,
            "byteLength" : 3048,
            "byteOffset" : 3048
        },
        {
            "buffer" : 0,
            "byteLength" : 2032,
            "byteOffset" : 6096
        },
        {
            "buffer" : 0,
            "byteLength" : 984,
            "byteOffset" : 8128
        },
        {
            "buffer" : 0,
            "byteLength" : 41016,
            "byteOffset" : 9112
        },
        {
            "buffer" : 0,
            "byteLength" : 41016,
            "byteOffset" : 50128
        },
        {
            "buffer" : 0,
            "byteLength" : 27344,
            "byteOffset" : 91144
        },
        {
            "buffer" : 0,
            "byteLength" : 12432,
            "byteOffset" : 118488
        }
    ],
    "buffers" : [
        {
            "byteLength" : 130920,
            "uri" : "data:application/octet-stream;base64,"
        }
    ]
}
