{
    "asset" : {
        "generator" : "Khronos glTF Blender I/O v1.6.16",
        "version" : "2.0"
    },
    "scene" : 0,
    "scenes" : [
        {
            "name" : "Scene",
            "nodes" : [
                0,
                1,
                2
            ]
        }
    ],
    "nodes" : [
        {
            "name" : "Light",
            "rotation" : [
                0.16907575726509094,
                0.7558803558349609,
                -0.27217137813568115,
                0.570947527885437
            ],
            "translation" : [
                4.076245307922363,
                5.903861999511719,
                -1.0054539442062378
            ]
        },
        {
            "name" : "Camera",
            "rotation" : [
                0.483536034822464,
                0.33687159419059753,
                -0.20870360732078552,
                0.7804827094078064
            ],
            "translation" : [
                7.358891487121582,
                4.958309173583984,
                6.925790786743164
            ]
        },
        {
            "mesh" : 0,
            "name" : "Curve",
            "rotation" : [
                0.5052013397216797,
                0.5046870708465576,
                -0.49475425481796265,
                0.4952583312988281
            ],
            "scale" : [
                5.18500280380249,
                5.185004234313965,
                5.185003280639648
            ],
            "translation" : [
                0,
                0.41665130853652954,
                0.0018785007996484637
            ]
        }
    ],
    "animations" : [
        {
            "channels" : [
                {
                    "sampler" : 0,
                    "target" : {
                        "node" : 2,
                        "path" : "rotation"
                    }
                }
            ],
            "name" : "CurveAction",
            "samplers" : [
                {
                    "input" : 4,
                    "interpolation" : "LINEAR",
                    "output" : 5
                }
            ]
        }
    ],
    "materials" : [
        {
            "doubleSided" : true,
            "name" : "SVGMat.001",
            "pbrMetallicRoughness" : {
                "baseColorFactor" : [
                    0.08650045841932297,
                    0.34191441535949707,
                    0.05612849071621895,
                    1
                ],
                "metallicFactor" : 0,
                "roughnessFactor" : 0.4000000059604645
            }
        }
    ],
    "meshes" : [
        {
            "name" : "Curve",
            "primitives" : [
                {
                    "attributes" : {
                        "POSITION" : 0,
                        "NORMAL" : 1,
                        "TEXCOORD_0" : 2
                    },
                    "indices" : 3,
                    "material" : 0
                }
            ]
        }
    ],
    "accessors" : [
        {
            "bufferView" : 0,
            "componentType" : 5126,
            "count" : 4368,
            "max" : [
                0.0361759215593338,
                0.009999999776482582,
                0.036661114543676376
            ],
            "min" : [
                -0.0360744446516037,
                -0.009999999776482582,
                -0.04473424702882767
            ],
            "type" : "VEC3"
        },
        {
            "bufferView" : 1,
            "componentType" : 5126,
            "count" : 4368,
            "type" : "VEC3"
        },
        {
            "bufferView" : 2,
            "componentType" : 5126,
            "count" : 4368,
            "type" : "VEC2"
        },
        {
            "bufferView" : 3,
            "componentType" : 5123,
            "count" : 8184,
            "type" : "SCALAR"
        },
        {
            "bufferView" : 4,
            "componentType" : 5126,
            "count" : 100,
            "max" : [
                4.125
            ],
            "min" : [
                0
            ],
            "type" : "SCALAR"
        },
        {
            "bufferView" : 5,
            "componentType" : 5126,
            "count" : 100,
            "type" : "VEC4"
        }
    ],
    "bufferViews" : [
        {
            "buffer" : 0,
            "byteLength" : 52416,
            "byteOffset" : 0
        },
        {
            "buffer" : 0,
            "byteLength" : 52416,
            "byteOffset" : 52416
        },
        {
            "buffer" : 0,
            "byteLength" : 34944,
            "byteOffset" : 104832
        },
        {
            "buffer" : 0,
            "byteLength" : 16368,
            "byteOffset" : 139776
        },
        {
            "buffer" : 0,
            "byteLength" : 400,
            "byteOffset" : 156144
        },
        {
            "buffer" : 0,
            "byteLength" : 1600,
            "byteOffset" : 156544
        }
    ],
    "buffers" : [
        {
            "byteLength" : 158144,
            "uri" : "data:application/octet-stream;base64,"
        }
    ]
}
