{
    "asset" : {
        "generator" : "Khronos glTF Blender I/O v1.6.16",
        "version" : "2.0"
    },
    "scene" : 0,
    "scenes" : [
        {
            "name" : "Scene",
            "nodes" : [
                0,
                1,
                2
            ]
        }
    ],
    "nodes" : [
        {
            "name" : "Light",
            "rotation" : [
                0.16907575726509094,
                0.7558803558349609,
                -0.27217137813568115,
                0.570947527885437
            ],
            "translation" : [
                4.076245307922363,
                5.903861999511719,
                -1.0054539442062378
            ]
        },
        {
            "name" : "Camera",
            "rotation" : [
                0.483536034822464,
                0.33687159419059753,
                -0.20870360732078552,
                0.7804827094078064
            ],
            "translation" : [
                7.358891487121582,
                4.958309173583984,
                6.925790786743164
            ]
        },
        {
            "mesh" : 0,
            "name" : "Curve",
            "rotation" : [
                0.7019203305244446,
                0,
                0,
                0.7122555375099182
            ],
            "scale" : [
                2.4276182651519775,
                2.4276182651519775,
                2.4276182651519775
            ],
            "translation" : [
                0.0001218270044773817,
                0.8558225631713867,
                -0.0006519928574562073
            ]
        }
    ],
    "animations" : [
        {
            "channels" : [
                {
                    "sampler" : 0,
                    "target" : {
                        "node" : 2,
                        "path" : "translation"
                    }
                },
                {
                    "sampler" : 1,
                    "target" : {
                        "node" : 2,
                        "path" : "rotation"
                    }
                },
                {
                    "sampler" : 2,
                    "target" : {
                        "node" : 2,
                        "path" : "scale"
                    }
                }
            ],
            "name" : "turn",
            "samplers" : [
                {
                    "input" : 4,
                    "interpolation" : "LINEAR",
                    "output" : 5
                },
                {
                    "input" : 4,
                    "interpolation" : "LINEAR",
                    "output" : 6
                },
                {
                    "input" : 4,
                    "interpolation" : "LINEAR",
                    "output" : 7
                }
            ]
        }
    ],
    "materials" : [
        {
            "doubleSided" : true,
            "name" : "SVGMat.006",
            "pbrMetallicRoughness" : {
                "baseColorFactor" : [
                    0.11953842639923096,
                    0.7011018991470337,
                    0.9646862745285034,
                    1
                ],
                "metallicFactor" : 0,
                "roughnessFactor" : 0.4000000059604645
            }
        }
    ],
    "meshes" : [
        {
            "name" : "Curve.004",
            "primitives" : [
                {
                    "attributes" : {
                        "POSITION" : 0,
                        "NORMAL" : 1,
                        "TEXCOORD_0" : 2
                    },
                    "indices" : 3,
                    "material" : 0
                }
            ]
        }
    ],
    "accessors" : [
        {
            "bufferView" : 0,
            "componentType" : 5126,
            "count" : 7735,
            "max" : [
                0.06923747062683105,
                0.009999999776482582,
                0.06526611745357513
            ],
            "min" : [
                -0.06922358274459839,
                -0.009999999776482582,
                -0.05801326036453247
            ],
            "type" : "VEC3"
        },
        {
            "bufferView" : 1,
            "componentType" : 5126,
            "count" : 7735,
            "type" : "VEC3"
        },
        {
            "bufferView" : 2,
            "componentType" : 5126,
            "count" : 7735,
            "type" : "VEC2"
        },
        {
            "bufferView" : 3,
            "componentType" : 5123,
            "count" : 14088,
            "type" : "SCALAR"
        },
        {
            "bufferView" : 4,
            "componentType" : 5126,
            "count" : 100,
            "max" : [
                4.125
            ],
            "min" : [
                0
            ],
            "type" : "SCALAR"
        },
        {
            "bufferView" : 5,
            "componentType" : 5126,
            "count" : 100,
            "type" : "VEC3"
        },
        {
            "bufferView" : 6,
            "componentType" : 5126,
            "count" : 100,
            "type" : "VEC4"
        },
        {
            "bufferView" : 7,
            "componentType" : 5126,
            "count" : 100,
            "type" : "VEC3"
        }
    ],
    "bufferViews" : [
        {
            "buffer" : 0,
            "byteLength" : 92820,
            "byteOffset" : 0
        },
        {
            "buffer" : 0,
            "byteLength" : 92820,
            "byteOffset" : 92820
        },
        {
            "buffer" : 0,
            "byteLength" : 61880,
            "byteOffset" : 185640
        },
        {
            "buffer" : 0,
            "byteLength" : 28176,
            "byteOffset" : 247520
        },
        {
            "buffer" : 0,
            "byteLength" : 400,
            "byteOffset" : 275696
        },
        {
            "buffer" : 0,
            "byteLength" : 1200,
            "byteOffset" : 276096
        },
        {
            "buffer" : 0,
            "byteLength" : 1600,
            "byteOffset" : 277296
        },
        {
            "buffer" : 0,
            "byteLength" : 1200,
            "byteOffset" : 278896
        }
    ],
    "buffers" : [
        {
            "byteLength" : 280096,
            "uri" : "data:application/octet-stream;base64,"
        }
    ]
}
